<svg width="31" height="31" viewBox="0 0 31 31" fill="none" xmlns="http://www.w3.org/2000/svg">
<rect width="31" height="31" rx="12" fill="#E6E1E0"/>
<path d="M10 23C9.45 23 8.97933 22.8043 8.588 22.413C8.196 22.021 8 21.55 8 21V14C8 13.45 8.196 12.979 8.588 12.587C8.97933 12.1957 9.45 12 10 12C10.55 12 11.0207 12.1957 11.412 12.587C11.804 12.979 12 13.45 12 14V21C12 21.55 11.804 22.021 11.412 22.413C11.0207 22.8043 10.55 23 10 23ZM16 23C15.45 23 14.9793 22.8043 14.588 22.413C14.196 22.021 14 21.55 14 21V9C14 8.45 14.196 7.97933 14.588 7.588C14.9793 7.196 15.45 7 16 7C16.55 7 17.021 7.196 17.413 7.588C17.8043 7.97933 18 8.45 18 9V21C18 21.55 17.8043 22.021 17.413 22.413C17.021 22.8043 16.55 23 16 23ZM22 23C21.45 23 20.979 22.8043 20.587 22.413C20.1957 22.021 20 21.55 20 21V18C20 17.45 20.1957 16.979 20.587 16.587C20.979 16.1957 21.45 16 22 16C22.55 16 23.021 16.1957 23.413 16.587C23.8043 16.979 24 17.45 24 18V21C24 21.55 23.8043 22.021 23.413 22.413C23.021 22.8043 22.55 23 22 23Z" fill="#545B7F"/>
</svg>
